<?xml version="1.0" encoding="UTF-8" standalone="no"?><!-- Generator: Gravit.io --><svg xmlns="http://www.w3.org/2000/svg" xmlns:xlink="http://www.w3.org/1999/xlink" style="isolation:isolate" viewBox="1078 595.217 253.225 75.783" width="253.225pt" height="75.783pt"><defs><clipPath id="_clipPath_qz9G4exvTwyb1BmnM6N7oyt0izI0JLkq"><rect x="1078" y="595.217" width="253.225" height="75.783"/></clipPath></defs><g clip-path="url(#_clipPath_qz9G4exvTwyb1BmnM6N7oyt0izI0JLkq)"><path d=" M 1277.229 604.69 L 1277.229 661.527 L 1278.282 661.527 L 1278.282 633.635 L 1318.699 633.635 L 1318.699 661.527 L 1319.752 661.527 L 1319.752 604.69 L 1318.699 604.69 L 1318.699 632.582 L 1278.282 632.582 L 1278.282 604.69 L 1277.229 604.69 Z  M 1285.965 671 L 1285.965 671 L 1269.651 671 L 1269.651 671 Q 1267.651 671 1266.757 670.105 L 1266.757 670.105 L 1266.757 670.105 Q 1265.862 669.211 1265.862 667.211 L 1265.862 667.211 L 1265.862 599.006 L 1265.862 599.006 Q 1265.862 597.006 1266.757 596.112 L 1266.757 596.112 L 1266.757 596.112 Q 1267.651 595.217 1269.651 595.217 L 1269.651 595.217 L 1285.965 595.217 L 1285.965 595.217 Q 1287.965 595.217 1288.86 596.112 L 1288.86 596.112 L 1288.86 596.112 Q 1289.755 597.006 1289.755 599.006 L 1289.755 599.006 L 1289.755 621.846 L 1307.332 621.846 L 1307.332 599.006 L 1307.332 599.006 Q 1307.332 597.006 1308.227 596.112 L 1308.227 596.112 L 1308.227 596.112 Q 1309.121 595.217 1311.121 595.217 L 1311.121 595.217 L 1327.436 595.217 L 1327.436 595.217 Q 1329.435 595.217 1330.33 596.112 L 1330.33 596.112 L 1330.33 596.112 Q 1331.225 597.006 1331.225 599.006 L 1331.225 599.006 L 1331.225 667.211 L 1331.225 667.211 Q 1331.225 669.211 1330.33 670.105 L 1330.33 670.105 L 1330.33 670.105 Q 1329.435 671 1327.436 671 L 1327.436 671 L 1311.121 671 L 1311.121 671 Q 1309.121 671 1308.227 670.105 L 1308.227 670.105 L 1308.227 670.105 Q 1307.332 669.211 1307.332 667.211 L 1307.332 667.211 L 1307.332 643.844 L 1289.755 643.844 L 1289.755 667.211 L 1289.755 667.211 Q 1289.755 669.211 1288.86 670.105 L 1288.86 670.105 L 1288.86 670.105 Q 1287.965 671 1285.965 671 Z " fill="rgb(104,98,255)"/><path d=" M 1241.834 671 L 1241.834 671 L 1208.574 671 L 1208.574 671 Q 1206.574 671 1205.68 670.105 L 1205.68 670.105 L 1205.68 670.105 Q 1204.785 669.211 1204.785 667.211 L 1204.785 667.211 L 1204.785 654.896 L 1204.785 654.896 Q 1204.785 652.896 1205.68 652.002 L 1205.68 652.002 L 1205.68 652.002 Q 1206.574 651.107 1208.574 651.107 L 1208.574 651.107 L 1236.887 651.107 L 1236.887 651.107 Q 1238.256 651.107 1238.94 650.212 L 1238.94 650.212 L 1238.94 650.212 Q 1239.624 649.318 1239.624 648.055 L 1239.624 648.055 L 1239.624 648.055 Q 1239.624 646.265 1238.94 645.423 L 1238.94 645.423 L 1238.94 645.423 Q 1238.256 644.581 1236.887 644.476 L 1236.887 644.476 L 1221.099 642.266 L 1221.099 642.266 Q 1213.732 641.213 1209.258 637.424 L 1209.258 637.424 L 1209.258 637.424 Q 1204.785 633.635 1204.785 624.793 L 1204.785 624.793 L 1204.785 613.742 L 1204.785 613.742 Q 1204.785 604.795 1210.574 600.006 L 1210.574 600.006 L 1210.574 600.006 Q 1216.363 595.217 1226.573 595.217 L 1226.573 595.217 L 1256.044 595.217 L 1256.044 595.217 Q 1258.044 595.217 1258.938 596.112 L 1258.938 596.112 L 1258.938 596.112 Q 1259.833 597.006 1259.833 599.006 L 1259.833 599.006 L 1259.833 611.531 L 1259.833 611.531 Q 1259.833 613.531 1258.938 614.426 L 1258.938 614.426 L 1258.938 614.426 Q 1258.044 615.321 1256.044 615.321 L 1256.044 615.321 L 1231.52 615.321 L 1231.52 615.321 Q 1230.151 615.321 1229.414 616.215 L 1229.414 616.215 L 1229.414 616.215 Q 1228.678 617.11 1228.678 618.478 L 1228.678 618.478 L 1228.678 618.478 Q 1228.678 619.847 1229.414 620.794 L 1229.414 620.794 L 1229.414 620.794 Q 1230.151 621.741 1231.52 621.846 L 1231.52 621.846 L 1247.202 623.951 L 1247.202 623.951 Q 1254.57 625.004 1259.096 628.793 L 1259.096 628.793 L 1259.096 628.793 Q 1263.622 632.582 1263.622 641.424 L 1263.622 641.424 L 1263.622 652.475 L 1263.622 652.475 Q 1263.622 661.422 1257.78 666.211 L 1257.78 666.211 L 1257.78 666.211 Q 1251.939 671 1241.834 671 Z  M 1250.36 605.742 L 1250.36 604.69 L 1226.994 604.69 L 1226.994 604.69 Q 1222.152 604.69 1219.205 607.374 L 1219.205 607.374 L 1219.205 607.374 Q 1216.258 610.058 1216.258 614.268 L 1216.258 614.268 L 1216.258 622.899 L 1216.258 622.899 Q 1216.258 627.214 1217.994 628.846 L 1217.994 628.846 L 1217.994 628.846 Q 1219.731 630.477 1222.468 631.003 L 1222.468 631.003 L 1244.676 635.529 L 1244.676 635.529 Q 1247.623 636.161 1249.36 638.003 L 1249.36 638.003 L 1249.36 638.003 Q 1251.097 639.845 1251.097 644.792 L 1251.097 644.792 L 1251.097 650.896 L 1251.097 650.896 Q 1251.097 655.107 1248.202 657.791 L 1248.202 657.791 L 1248.202 657.791 Q 1245.308 660.475 1240.466 660.475 L 1240.466 660.475 L 1214.258 660.475 L 1214.258 661.527 L 1240.466 661.527 L 1240.466 661.527 Q 1245.834 661.527 1248.992 658.527 L 1248.992 658.527 L 1248.992 658.527 Q 1252.149 655.528 1252.149 650.896 L 1252.149 650.896 L 1252.149 644.792 L 1252.149 644.792 Q 1252.149 639.319 1250.097 637.213 L 1250.097 637.213 L 1250.097 637.213 Q 1248.044 635.108 1244.887 634.477 L 1244.887 634.477 L 1222.678 629.951 L 1222.678 629.951 Q 1220.257 629.53 1218.784 628.056 L 1218.784 628.056 L 1218.784 628.056 Q 1217.31 626.583 1217.31 622.899 L 1217.31 622.899 L 1217.31 614.268 L 1217.31 614.268 Q 1217.31 610.584 1219.942 608.163 L 1219.942 608.163 L 1219.942 608.163 Q 1222.573 605.742 1226.994 605.742 L 1226.994 605.742 L 1250.36 605.742 Z " fill="rgb(13,202,113)"/><path d=" M 1149.708 642.371 L 1149.708 639.108 L 1149.708 639.108 Q 1149.708 636.266 1150.181 633.845 L 1150.181 633.845 L 1150.181 633.845 Q 1150.655 631.424 1151.392 629.319 L 1151.392 629.319 L 1158.128 612.058 L 1158.128 612.058 Q 1159.18 609.426 1160.443 607.584 L 1160.443 607.584 L 1160.443 607.584 Q 1161.707 605.742 1164.864 605.742 L 1164.864 605.742 L 1175.179 605.742 L 1175.179 605.742 Q 1178.126 605.742 1179.389 607.584 L 1179.389 607.584 L 1179.389 607.584 Q 1180.652 609.426 1181.81 612.163 L 1181.81 612.163 L 1189.073 629.319 L 1189.073 629.319 Q 1189.809 631.424 1190.283 633.845 L 1190.283 633.845 L 1190.283 633.845 Q 1190.757 636.266 1190.757 639.108 L 1190.757 639.108 L 1190.757 642.371 L 1149.708 642.371 Z  M 1166.548 617.32 L 1166.548 617.32 L 1161.601 633.319 L 1178.126 633.319 L 1173.179 617.32 L 1173.179 617.32 Q 1172.758 616.373 1172.285 615.952 L 1172.285 615.952 L 1172.285 615.952 Q 1171.811 615.531 1171.179 615.531 L 1171.179 615.531 L 1168.548 615.531 L 1168.548 615.531 Q 1167.917 615.531 1167.443 615.952 L 1167.443 615.952 L 1167.443 615.952 Q 1166.969 616.373 1166.548 617.32 Z  M 1190.757 643.423 L 1190.757 661.527 L 1191.809 661.527 L 1191.809 639.108 L 1191.809 639.108 Q 1191.809 636.161 1191.336 633.687 L 1191.336 633.687 L 1191.336 633.687 Q 1190.862 631.214 1190.02 628.898 L 1190.02 628.898 L 1182.757 611.742 L 1182.757 611.742 Q 1181.494 608.69 1180.073 606.69 L 1180.073 606.69 L 1180.073 606.69 Q 1178.652 604.69 1175.179 604.69 L 1175.179 604.69 L 1164.864 604.69 L 1164.864 604.69 Q 1161.286 604.69 1159.812 606.69 L 1159.812 606.69 L 1159.812 606.69 Q 1158.338 608.69 1157.181 611.637 L 1157.181 611.637 L 1150.444 628.898 L 1150.444 628.898 Q 1149.602 631.214 1149.129 633.687 L 1149.129 633.687 L 1149.129 633.687 Q 1148.655 636.161 1148.655 639.108 L 1148.655 639.108 L 1148.655 661.527 L 1149.708 661.527 L 1149.708 643.423 L 1190.757 643.423 Z  M 1160.549 652.475 L 1160.549 667.211 L 1160.549 667.211 Q 1160.549 669.211 1159.654 670.105 L 1159.654 670.105 L 1159.654 670.105 Q 1158.759 671 1156.76 671 L 1156.76 671 L 1141.287 671 L 1141.287 671 Q 1139.287 671 1138.393 670.105 L 1138.393 670.105 L 1138.393 670.105 Q 1137.498 669.211 1137.498 667.211 L 1137.498 667.211 L 1137.498 639.424 L 1137.498 639.424 Q 1137.498 636.266 1138.498 632.161 L 1138.498 632.161 L 1138.498 632.161 Q 1139.498 628.056 1141.603 622.583 L 1141.603 622.583 L 1150.76 598.69 L 1150.76 598.69 Q 1151.392 596.901 1152.707 596.059 L 1152.707 596.059 L 1152.707 596.059 Q 1154.023 595.217 1156.128 595.217 L 1156.128 595.217 L 1184.441 595.217 L 1184.441 595.217 Q 1186.441 595.217 1187.757 596.059 L 1187.757 596.059 L 1187.757 596.059 Q 1189.073 596.901 1189.704 598.69 L 1189.704 598.69 L 1198.861 622.583 L 1198.861 622.583 Q 1200.966 628.056 1201.966 632.161 L 1201.966 632.161 L 1201.966 632.161 Q 1202.966 636.266 1202.966 639.424 L 1202.966 639.424 L 1202.966 667.211 L 1202.966 667.211 Q 1202.966 669.211 1202.071 670.105 L 1202.071 670.105 L 1202.071 670.105 Q 1201.177 671 1199.177 671 L 1199.177 671 L 1183.284 671 L 1183.284 671 Q 1181.179 671 1180.179 670.105 L 1180.179 670.105 L 1180.179 670.105 Q 1179.179 669.211 1179.179 667.211 L 1179.179 667.211 L 1179.179 652.475 L 1160.549 652.475 Z " fill="rgb(253,217,2)"/><path d=" M 1115.049 671 L 1115.049 671 L 1081.789 671 L 1081.789 671 Q 1079.789 671 1078.895 670.105 L 1078.895 670.105 L 1078.895 670.105 Q 1078 669.211 1078 667.211 L 1078 667.211 L 1078 654.896 L 1078 654.896 Q 1078 652.896 1078.895 652.002 L 1078.895 652.002 L 1078.895 652.002 Q 1079.789 651.107 1081.789 651.107 L 1081.789 651.107 L 1110.102 651.107 L 1110.102 651.107 Q 1111.471 651.107 1112.155 650.212 L 1112.155 650.212 L 1112.155 650.212 Q 1112.839 649.318 1112.839 648.055 L 1112.839 648.055 L 1112.839 648.055 Q 1112.839 646.265 1112.155 645.423 L 1112.155 645.423 L 1112.155 645.423 Q 1111.471 644.581 1110.102 644.476 L 1110.102 644.476 L 1094.314 642.266 L 1094.314 642.266 Q 1086.947 641.213 1082.473 637.424 L 1082.473 637.424 L 1082.473 637.424 Q 1078 633.635 1078 624.793 L 1078 624.793 L 1078 613.742 L 1078 613.742 Q 1078 604.795 1083.789 600.006 L 1083.789 600.006 L 1083.789 600.006 Q 1089.578 595.217 1099.788 595.217 L 1099.788 595.217 L 1129.259 595.217 L 1129.259 595.217 Q 1131.259 595.217 1132.153 596.112 L 1132.153 596.112 L 1132.153 596.112 Q 1133.048 597.006 1133.048 599.006 L 1133.048 599.006 L 1133.048 611.531 L 1133.048 611.531 Q 1133.048 613.531 1132.153 614.426 L 1132.153 614.426 L 1132.153 614.426 Q 1131.259 615.321 1129.259 615.321 L 1129.259 615.321 L 1104.735 615.321 L 1104.735 615.321 Q 1103.366 615.321 1102.629 616.215 L 1102.629 616.215 L 1102.629 616.215 Q 1101.893 617.11 1101.893 618.478 L 1101.893 618.478 L 1101.893 618.478 Q 1101.893 619.847 1102.629 620.794 L 1102.629 620.794 L 1102.629 620.794 Q 1103.366 621.741 1104.735 621.846 L 1104.735 621.846 L 1120.417 623.951 L 1120.417 623.951 Q 1127.785 625.004 1132.311 628.793 L 1132.311 628.793 L 1132.311 628.793 Q 1136.837 632.582 1136.837 641.424 L 1136.837 641.424 L 1136.837 652.475 L 1136.837 652.475 Q 1136.837 661.422 1130.995 666.211 L 1130.995 666.211 L 1130.995 666.211 Q 1125.154 671 1115.049 671 Z  M 1123.575 605.742 L 1123.575 604.69 L 1100.209 604.69 L 1100.209 604.69 Q 1095.367 604.69 1092.42 607.374 L 1092.42 607.374 L 1092.42 607.374 Q 1089.473 610.058 1089.473 614.268 L 1089.473 614.268 L 1089.473 622.899 L 1089.473 622.899 Q 1089.473 627.214 1091.209 628.846 L 1091.209 628.846 L 1091.209 628.846 Q 1092.946 630.477 1095.683 631.003 L 1095.683 631.003 L 1117.891 635.529 L 1117.891 635.529 Q 1120.838 636.161 1122.575 638.003 L 1122.575 638.003 L 1122.575 638.003 Q 1124.312 639.845 1124.312 644.792 L 1124.312 644.792 L 1124.312 650.896 L 1124.312 650.896 Q 1124.312 655.107 1121.417 657.791 L 1121.417 657.791 L 1121.417 657.791 Q 1118.523 660.475 1113.681 660.475 L 1113.681 660.475 L 1087.473 660.475 L 1087.473 661.527 L 1113.681 661.527 L 1113.681 661.527 Q 1119.049 661.527 1122.207 658.527 L 1122.207 658.527 L 1122.207 658.527 Q 1125.364 655.528 1125.364 650.896 L 1125.364 650.896 L 1125.364 644.792 L 1125.364 644.792 Q 1125.364 639.319 1123.312 637.213 L 1123.312 637.213 L 1123.312 637.213 Q 1121.259 635.108 1118.102 634.477 L 1118.102 634.477 L 1095.893 629.951 L 1095.893 629.951 Q 1093.472 629.53 1091.999 628.056 L 1091.999 628.056 L 1091.999 628.056 Q 1090.525 626.583 1090.525 622.899 L 1090.525 622.899 L 1090.525 614.268 L 1090.525 614.268 Q 1090.525 610.584 1093.157 608.163 L 1093.157 608.163 L 1093.157 608.163 Q 1095.788 605.742 1100.209 605.742 L 1100.209 605.742 L 1123.575 605.742 Z " fill="rgb(255,86,69)"/></g></svg>