<?xml version="1.0" standalone="no"?>
<!DOCTYPE svg PUBLIC "-//W3C//DTD SVG 20010904//EN"
 "http://www.w3.org/TR/2001/REC-SVG-20010904/DTD/svg10.dtd">
<svg version="1.0" xmlns="http://www.w3.org/2000/svg"
 width="64.000000pt" height="64.000000pt" viewBox="0 0 64.000000 64.000000"
 preserveAspectRatio="xMidYMid meet">
<metadata>
Created by potrace 1.11, written by Peter Selinger 2001-2013
</metadata>
<g transform="translate(0.000000,64.000000) scale(0.100000,-0.100000)"
fill="#000000" stroke="none">
<path d="M65 412 c-43 -5 -55 -19 -55 -63 0 -38 1 -39 45 -50 53 -13 52 -21
-2 -23 -31 -1 -39 -5 -41 -24 -3 -17 2 -22 20 -23 49 -2 93 3 103 12 13 13 25
11 23 -3 -2 -8 5 -12 17 -10 36 5 45 11 39 27 -5 11 1 15 20 15 19 0 26 -5 26
-20 0 -11 6 -20 13 -21 50 -3 139 -1 160 5 14 3 28 14 30 24 4 13 5 12 6 -5 2
-44 61 -36 61 8 0 22 5 29 20 29 15 0 20 -7 20 -29 0 -23 5 -30 25 -33 13 -3
27 -3 30 0 3 3 5 45 5 93 0 74 -3 87 -17 91 -30 8 -43 -2 -43 -33 0 -22 -5
-29 -20 -29 -15 0 -20 7 -20 29 0 31 -13 41 -42 33 -14 -3 -18 -15 -18 -49 0
-35 -3 -43 -12 -35 -7 5 -29 13 -48 18 l-35 8 40 6 c33 4 40 9 41 28 1 23 -12
27 -81 22 -41 -3 -55 -17 -55 -55 0 -43 22 -61 80 -64 33 -2 -12 -18 -47 -16
-33 1 -36 4 -39 33 -5 42 -30 102 -43 103 -67 6 -76 3 -93 -32 -9 -19 -17 -43
-18 -53 0 -19 -1 -19 -13 -2 -7 9 -25 18 -40 20 -33 3 -48 16 -21 17 63 4 60
2 56 42 -2 12 -23 15 -77 9z m185 -78 c0 -8 -7 -14 -15 -14 -15 0 -21 21 -9
33 10 9 24 -2 24 -19z"/>
</g>
</svg>
